<svg xmlns="http://www.w3.org/2000/svg" fill-rule="evenodd" clip-rule="evenodd" image-rendering="optimizeQuality" shape-rendering="geometricPrecision" text-rendering="geometricPrecision" viewBox="0 0 6.827 6.827" id="Bulb"><path fill="#4a90e2" d="M2.7595 4.699c0,0.0032126 8.66142e-005,0.174705 0.000255906,0.26585l1.30725 0c0.000110236,-0.0900394 0.000165354,-0.263244 0.000165354,-0.26585 0,-1.04117 0.67263,-0.669941 0.67263,-1.69846 0,-0.732587 -0.593882,-1.32647 -1.32647,-1.32647 -0.732587,0 -1.32647,0.593882 -1.32647,1.32647 0,1.02853 0.672638,0.657295 0.672638,1.69846zm1.51787 -1.84774c0,0.0422087 0.0342205,0.0764252 0.0764252,0.0764252 0.0422087,0 0.0764291,-0.0342165 0.0764291,-0.0764252 0,-0.246906 -0.100091,-0.470449 -0.261902,-0.63226 -0.161811,-0.161811 -0.38535,-0.261898 -0.63226,-0.261898 -0.0422047,0 -0.0764252,0.0342165 -0.0764252,0.0764252 0,0.0422087 0.0342205,0.0764252 0.0764252,0.0764252 0.204713,0 0.390043,0.0829764 0.524189,0.217118 0.134146,0.134146 0.217118,0.31948 0.217118,0.524189z" class="color424242 svgShape"></path><path fill="#4a90e2" fill-rule="nonzero" d="M2.81391 5.04128c-.0422087 0-.0764252.0342165-.0764252.0764252 0 .0422087.0342165.0764252.0764252.0764252l1.18381 0c.0422047 0 .0764252-.0342165.0764252-.0764252 0-.0422087-.0342205-.0764252-.0764252-.0764252l-1.18381 0zM1.35656 2.85817c-.0422087 0-.0764291.0342205-.0764291.0764252 0 .0422087.0342205.0764291.0764291.0764291l.340941 0c.0422087 0 .0764252-.0342205.0764252-.0764291 0-.0422047-.0342165-.0764252-.0764252-.0764252l-.340941 0zM1.6963 1.84719c-.036437-.0211024-.0830866-.00867323-.104189.0277638-.0211024.0364409-.00867323.0830906.0277638.104193l.29526.170469c.036437.0211024.0830866.00867323.104193-.0277638.0211024-.036437.00867323-.0830866-.0277677-.104193l-.29526-.170469zM2.4959 1.14113c-.0211024-.0364409-.067752-.0488701-.104189-.0277677-.0364409.0211063-.0488701.0677559-.0277677.104193l.170472.29526c.0211024.036437.067752.0488661.104189.0277638.036437-.0211024.0488701-.067752.0277638-.104189l-.170469-.29526zM3.54169.929756c0-.0422047-.0342165-.0764252-.0764252-.0764252-.0422047 0-.0764252.0342205-.0764252.0764252l0 .340941c0 .0422047.0342205.0764252.0764252.0764252.0422087 0 .0764252-.0342205.0764252-.0764252l0-.340941zM4.55267 1.2695c.0211063-.036437.00867323-.0830866-.0277638-.104193-.036437-.0211024-.0830866-.00867323-.104189.0277677l-.170472.295256c-.0211024.036437-.00867323.0830866.0277677.104189.036437.0211024.0830866.00867323.104189-.0277638l.170469-.295256zM5.25872 2.06909c.036437-.0211063.0488661-.0677559.0277638-.104193-.0211024-.036437-.067752-.0488661-.104189-.0277638l-.295268.170472c-.036437.0211024-.0488701.067752-.0277638.104193.0211024.036437.067752.0488661.104189.0277638l.295268-.170472zM5.4701 3.11488c.0422087 0 .0764291-.0342205.0764291-.0764252 0-.0422087-.0342205-.0764291-.0764291-.0764291l-.340941 0c-.0422087 0-.0764252.0342205-.0764252.0764291 0 .0422047.0342165.0764252.0764252.0764252l.340941 0zM2.81391 5.42341c-.0422087 0-.0764252-.0342205-.0764252-.0764252 0-.0422087.0342165-.0764291.0764252-.0764291l1.18381 0c.0422047 0 .0764252.0342205.0764252.0764291 0 .0422047-.0342205.0764252-.0764252.0764252l-1.18381 0zM2.81391 5.49984c-.0422087 0-.0764252.0342205-.0764252.0764252 0 .0422087.0342165.0764252.0764252.0764252l1.18381 0c.0422047 0 .0764252-.0342165.0764252-.0764252 0-.0422047-.0342205-.0764252-.0764252-.0764252l-1.18381 0z" class="color424242 svgShape"></path><path fill="#4a90e2" d="M3.74746 5.72912l-0.683299 0c0.0233307,0.137984 0.167386,0.244213 0.34165,0.244213 0.174264,0 0.318319,-0.106228 0.34165,-0.244213z" class="color424242 svgShape"></path><rect width="6.827" height="6.827" fill="none"></rect></svg>