<svg xmlns="http://www.w3.org/2000/svg" viewBox="0 0 140 140" id="Partnership"><path d="M22.937 75.25a.996.996 0 0 1-.504-.137l-15.938-9.32a1.002 1.002 0 0 1-.355-1.373l20.98-35.426a.999.999 0 0 1 1.364-.353l15.938 9.32a1.002 1.002 0 0 1 .356 1.372L23.798 74.76a.999.999 0 0 1-.861.49zM8.373 64.574l14.212 8.31 19.96-33.706-14.212-8.31-19.96 33.706z" fill="#fcbf58" class="color000000 svgShape"></path><path d="M29.883 76.237a.996.996 0 0 1-.504-.137l-5.593-3.272a1.002 1.002 0 0 1-.356-1.373l18.275-30.857a1 1 0 0 1 1.365-.354l5.594 3.27a1.002 1.002 0 0 1 .355 1.374L30.745 75.746a.999.999 0 0 1-.862.49zm-4.22-4.627 3.868 2.261 17.255-29.137-3.868-2.261L25.663 71.61zm-6.56-4.714c-.745 0-1.497-.19-2.182-.592a4.271 4.271 0 0 1-1.995-2.633 4.254 4.254 0 0 1 .462-3.257c1.207-2.039 3.858-2.722 5.91-1.523a4.271 4.271 0 0 1 1.995 2.633 4.254 4.254 0 0 1-.461 3.257 4.328 4.328 0 0 1-3.73 2.115zm.01-6.598c-.797 0-1.572.406-2.005 1.136a2.286 2.286 0 0 0 .822 3.144 2.335 2.335 0 0 0 3.18-.817 2.286 2.286 0 0 0-.822-3.144 2.327 2.327 0 0 0-1.175-.319zm90.86 16.27a1 1 0 0 1-.869-.503L91.27 44.953a1 1 0 0 1 .375-1.367l5.64-3.192a1 1 0 0 1 1.36.373l17.834 31.111a1 1 0 0 1-.375 1.367l-5.64 3.193a.998.998 0 0 1-.491.13zM93.505 44.83l16.84 29.376L114.244 72l-16.84-29.376-3.9 2.207z" fill="#fcbf58" class="color000000 svgShape"></path><path d="M116.933 75.678a1 1 0 0 1-.869-.503L95.589 39.458a1 1 0 0 1 .375-1.367l16.069-9.095a1 1 0 0 1 1.36.373l20.475 35.717a1 1 0 0 1-.375 1.367l-16.069 9.095a.998.998 0 0 1-.491.13zM97.825 39.336l19.48 33.982 14.327-8.11-19.48-33.981-14.327 8.11z" fill="#fcbf58" class="color000000 svgShape"></path><path d="M121.04 67.041a4.328 4.328 0 0 1-3.76-2.168 4.255 4.255 0 0 1-.416-3.261 4.275 4.275 0 0 1 2.032-2.606c2.068-1.169 4.711-.45 5.889 1.608.571.996.718 2.155.415 3.261a4.275 4.275 0 0 1-2.032 2.605 4.305 4.305 0 0 1-2.128.561zm-.011-6.596c-.39 0-.785.096-1.148.301a2.292 2.292 0 0 0-.866 3.133 2.335 2.335 0 0 0 3.168.86 2.286 2.286 0 0 0 .866-3.131 2.324 2.324 0 0 0-2.02-1.163zM69.492 52.33a.993.993 0 0 1-.543-.16c-10.89-7.072-17.778-.702-17.846-.636-.323.307-.81.365-1.195.14l-4.504-2.634a1 1 0 0 1 1.01-1.726l3.911 2.287c2.083-1.534 9.415-5.793 19.713.89a1 1 0 0 1-.546 1.84zM35.82 79.706c-.019 0-.038 0-.056-.002a1 1 0 0 1-.944-1.053l.221-3.979-3.577-2.092a1 1 0 0 1 1.01-1.726l4.104 2.4a1 1 0 0 1 .494.92l-.255 4.588a1 1 0 0 1-.997.944zm38.93 31.52a6.32 6.32 0 0 1-3.2-.866l-2.424-1.387a1 1 0 1 1 .993-1.736l2.433 1.391c2.07 1.21 4.733.527 5.946-1.521.64-1.082.837-2.282.552-3.38-.257-.99-.88-1.799-1.804-2.339l-.563-.33a1 1 0 0 1 1.01-1.726l.562.33c1.374.803 2.344 2.069 2.731 3.563.42 1.617.146 3.357-.768 4.901a6.346 6.346 0 0 1-5.469 3.1z" fill="#fcbf58" class="color000000 svgShape"></path><path d="M84.904 104.88a6.23 6.23 0 0 1-3.152-.855l-5.351-3.131a1 1 0 1 1 1.01-1.727l5.35 3.131c2.018 1.179 4.626.51 5.812-1.494a4.155 4.155 0 0 0 .451-3.18 4.186 4.186 0 0 0-1.955-2.578l-6.365-3.722a1 1 0 0 1 1.01-1.727l6.365 3.723a6.174 6.174 0 0 1 2.881 3.802 6.142 6.142 0 0 1-.666 4.702 6.254 6.254 0 0 1-5.39 3.055z" fill="#fcbf58" class="color000000 svgShape"></path><path d="M94.015 98.118a6.23 6.23 0 0 1-3.152-.854l-9.429-5.514a1 1 0 0 1 1.01-1.726l9.429 5.513c2.016 1.18 4.625.51 5.811-1.494a4.155 4.155 0 0 0 .451-3.18 4.186 4.186 0 0 0-1.955-2.578l-9.429-5.513a1 1 0 0 1 1.01-1.727l9.429 5.514a6.174 6.174 0 0 1 2.881 3.803 6.142 6.142 0 0 1-.666 4.7 6.254 6.254 0 0 1-5.39 3.056z" fill="#fcbf58" class="color000000 svgShape"></path><path d="M101.256 90.23a6.451 6.451 0 0 1-3.264-.885l-11.24-6.573a1 1 0 0 1 1.01-1.727l11.24 6.573c2.123 1.24 4.865.537 6.114-1.572a4.37 4.37 0 0 0 .475-3.346 4.403 4.403 0 0 0-2.057-2.712l-11.241-6.574a1 1 0 0 1 1.01-1.726l11.24 6.573a6.39 6.39 0 0 1 2.984 3.938 6.359 6.359 0 0 1-.69 4.867 6.476 6.476 0 0 1-5.58 3.164z" fill="#fcbf58" class="color000000 svgShape"></path><path d="M92.795 73.55a.996.996 0 0 1-.503-.137L73.44 62.391a1 1 0 0 1 1.01-1.727L93.3 71.687a1 1 0 0 1-.506 1.863zM38.038 89.596c-2.24.001-4.41-1.191-5.542-3.285a6.173 6.173 0 0 1-.486-4.75 6.206 6.206 0 0 1 3.046-3.712l10.792-5.765c3.049-1.63 6.862-.487 8.501 2.544a6.175 6.175 0 0 1 .486 4.75 6.21 6.21 0 0 1-3.045 3.712l-10.793 5.765a6.267 6.267 0 0 1-2.96.741zm10.775-16.255c-.685 0-1.378.163-2.022.507l-10.793 5.765a4.223 4.223 0 0 0-2.073 2.524 4.19 4.19 0 0 0 .33 3.223c1.117 2.064 3.719 2.841 5.8 1.731l10.793-5.765a4.226 4.226 0 0 0 2.072-2.525 4.192 4.192 0 0 0-.33-3.222 4.289 4.289 0 0 0-3.777-2.238zm-2.494-.375h.01-.01z" fill="#fcbf58" class="color000000 svgShape"></path><path d="M44.88 97.85c-2.237 0-4.409-1.192-5.541-3.286a6.175 6.175 0 0 1-.487-4.748 6.213 6.213 0 0 1 3.046-3.714l11.166-5.861c3.046-1.626 6.859-.486 8.498 2.544a6.176 6.176 0 0 1 .486 4.751 6.206 6.206 0 0 1-3.046 3.711l-11.169 5.865a6.26 6.26 0 0 1-2.952.739zM56.027 81.5c-.685 0-1.379.162-2.023.506l-.006.004-11.163 5.86a4.22 4.22 0 0 0-2.066 2.52 4.19 4.19 0 0 0 .33 3.223c1.117 2.064 3.717 2.842 5.8 1.731l11.169-5.864a4.218 4.218 0 0 0 2.066-2.52 4.192 4.192 0 0 0-.33-3.223 4.289 4.289 0 0 0-3.777-2.238zm-2.494-.376h.01-.01z" fill="#fcbf58" class="color000000 svgShape"></path><path d="M54.367 104.745c-2.238 0-4.409-1.192-5.541-3.287a6.175 6.175 0 0 1-.487-4.749 6.21 6.21 0 0 1 3.046-3.713l9.61-5.092c3.048-1.625 6.86-.487 8.499 2.545a6.176 6.176 0 0 1 .486 4.75 6.21 6.21 0 0 1-3.045 3.712l-9.612 5.093a6.256 6.256 0 0 1-2.956.741zm9.591-15.583c-.685 0-1.378.163-2.022.507l-.003.002-9.609 5.091a4.222 4.222 0 0 0-2.07 2.523 4.192 4.192 0 0 0 .33 3.222c1.118 2.067 3.717 2.842 5.8 1.732l9.611-5.093a4.221 4.221 0 0 0 2.07-2.524 4.193 4.193 0 0 0-.33-3.222 4.288 4.288 0 0 0-3.777-2.238zm-2.494-.375h.01-.01z" fill="#fcbf58" class="color000000 svgShape"></path><path d="M64.09 111.496c-2.235 0-4.39-1.181-5.524-3.26a6.177 6.177 0 0 1-.504-4.747 6.21 6.21 0 0 1 3.032-3.724l5.098-2.979a.364.364 0 0 1 .03-.016c3.04-1.64 6.86-.514 8.51 2.513a6.172 6.172 0 0 1 .503 4.747 6.207 6.207 0 0 1-3.031 3.723l-5.098 2.979a6.342 6.342 0 0 1-3.016.764zm3.095-12.973-5.112 2.985a4.25 4.25 0 0 0-2.093 2.55 4.19 4.19 0 0 0 .342 3.222c1.125 2.06 3.73 2.827 5.805 1.709l5.098-2.979c1.037-.56 1.77-1.459 2.093-2.549a4.189 4.189 0 0 0-.342-3.22c-1.123-2.058-3.718-2.826-5.79-1.718zM63.32 74.76a6.863 6.863 0 0 1-3.474-.943 6.796 6.796 0 0 1-3.175-4.19 6.764 6.764 0 0 1 .734-5.18l6.115-10.324a3.585 3.585 0 0 1 1.696-1.482l13.1-5.55a3.665 3.665 0 0 1 1.128-.278c1.458-.114 6.328-.233 10.058 2.93l4.065-2.195a1 1 0 1 1 .95 1.76l-4.687 2.53a.999.999 0 0 1-1.172-.162c-3.18-3.086-7.734-2.98-9.051-2.87-.18.016-.346.057-.51.126l-13.1 5.55c-.32.135-.581.364-.757.66l-6.114 10.325a4.777 4.777 0 0 0-.519 3.658 4.81 4.81 0 0 0 2.248 2.965c2.32 1.358 5.317.586 6.683-1.718l5.542-9.357a1 1 0 1 1 1.72 1.02l-5.542 9.357c-1.28 2.162-3.58 3.367-5.938 3.367zM104.038 80.124a1 1 0 0 1-.998-.952l-.229-4.746a1.001 1.001 0 0 1 .471-.897l3.747-2.329a1 1 0 0 1 1.056 1.7l-3.248 2.017.2 4.16a1 1 0 0 1-.95 1.046l-.05.001z" fill="#fcbf58" class="color000000 svgShape"></path></svg>