<svg xmlns="http://www.w3.org/2000/svg" viewBox="0 0 32 32" id="Ticket"><path d="M2 11v4a1.0029 1.0029 0 0 0 1 1 1 1 0 0 1 0 2 1.0029 1.0029 0 0 0-1 1v4a1.0029 1.0029 0 0 0 1 1H22V10H3A1.0029 1.0029 0 0 0 2 11zm6 2H18a1 1 0 0 1 0 2H8a1 1 0 0 1 0-2zm0 3H18a1 1 0 0 1 0 2H8a1 1 0 0 1 0-2zm0 3H18a1 1 0 0 1 0 2H8a1 1 0 0 1 0-2zM29 16a1.0029 1.0029 0 0 0 1-1V11a1.0029 1.0029 0 0 0-1-1H24V24h5a1.0029 1.0029 0 0 0 1-1V19a1.0029 1.0029 0 0 0-1-1 1 1 0 0 1 0-2z" fill="#ff6289" class="color000000 svgShape"></path></svg>